<svg xmlns="http://www.w3.org/2000/svg" viewBox="0 0 1080 1080" role="img">
  <g fill="#FF2F4D" fill-rule="evenodd">
    <path d="M 834.00 782.50 L 802.00 782.50 L 781.00 780.50 L 741.00 771.50 L 707.00 757.50 L 663.00 729.50 L 639.00 709.50 L 586.50 654.00 L 545.50 601.00 L 494.50 528.00 L 463.50 487.00 L 425.50 442.00 L 400.00 416.50 L 374.00 395.50 L 340.00 375.50 L 308.00 364.50 L 282.00 360.50 L 247.00 360.50 L 226.00 363.50 L 197.00 371.50 L 172.00 382.50 L 148.00 397.50 L 129.00 413.50 L 109.50 435.00 L 95.50 456.00 L 83.50 481.00 L 76.50 504.00 L 72.50 534.00 L 72.50 550.00 L 76.50 579.00 L 84.50 605.00 L 95.50 628.00 L 109.50 649.00 L 120.50 662.00 L 144.00 683.50 L 163.00 696.50 L 187.00 708.50 L 203.00 714.50 L 232.00 721.50 L 248.00 723.50 L 282.00 723.50 L 306.00 719.50 L 326.00 713.50 L 354.00 700.50 L 373.00 688.50 L 404.00 663.50 L 426.50 641.00 L 467.00 592.50 L 503.50 644.00 L 462.50 691.00 L 423.00 726.50 L 389.00 749.50 L 346.00 769.50 L 300.00 780.50 L 250.00 782.50 L 202.00 775.50 L 160.00 761.50 L 124.00 742.50 L 91.00 717.50 L 68.50 695.00 L 54.50 677.00 L 41.50 657.00 L 29.50 633.00 L 15.50 590.00 L 10.50 556.00 L 10.50 528.00 L 13.50 503.00 L 18.50 481.00 L 27.50 455.00 L 47.50 417.00 L 70.50 387.00 L 98.00 360.50 L 134.00 335.50 L 170.00 318.50 L 217.00 305.50 L 250.00 301.50 L 279.00 301.50 L 313.00 305.50 L 346.00 314.50 L 380.00 329.50 L 416.00 352.50 L 445.00 376.50 L 475.50 407.00 L 510.50 448.00 L 594.50 565.00 L 650.50 635.00 L 697.00 679.50 L 723.00 697.50 L 746.00 709.50 L 780.00 720.50 L 803.00 723.50 L 843.00 722.50 L 868.00 717.50 L 897.00 707.50 L 931.00 688.50 L 950.00 673.50 L 965.50 658.00 L 987.00 628.50 L 1054.50 629.00 L 1037.50 663.00 L 1016.50 692.00 L 987.00 721.50 L 963.00 739.50 L 922.00 761.50 L 904.00 768.50 L 876.00 776.50 L 834.00 782.50 Z M 1066.00 571.50 L 770.50 571.00 L 771.00 512.50 L 1004.50 512.00 L 1000.50 493.00 L 991.50 469.00 L 975.50 441.00 L 958.50 420.00 L 942.00 404.50 L 920.00 388.50 L 895.00 375.50 L 869.00 366.50 L 835.00 360.50 L 803.00 360.50 L 774.00 365.50 L 739.00 379.50 L 713.00 395.50 L 683.00 420.50 L 649.50 456.00 L 622.00 491.50 L 585.50 440.00 L 615.50 404.00 L 649.00 370.50 L 679.00 346.50 L 718.00 323.50 L 749.00 311.50 L 791.00 302.50 L 835.00 301.50 L 885.00 309.50 L 931.00 326.50 L 965.00 346.50 L 990.00 366.50 L 1007.50 384.00 L 1024.50 405.00 L 1038.50 427.00 L 1048.50 447.00 L 1062.50 489.00 L 1068.50 533.00 L 1066.00 571.50 Z"/>
  </g>
</svg>
