<svg xmlns="http://www.w3.org/2000/svg" viewBox="0 0 1920 1080" role="img">
  <g fill="#A0A0A0" fill-rule="evenodd">
    <path d="M 356.00 750.50 L 335.00 750.50 L 327.00 748.50 L 314.00 741.50 L 306.50 734.00 L 295.50 711.00 L 293.00 672.50 L 256.00 687.50 L 222.00 694.50 L 194.00 694.50 L 163.00 688.50 L 135.00 678.50 L 117.00 669.50 L 93.00 653.50 L 71.50 633.00 L 49.50 602.00 L 34.50 566.00 L 27.50 531.00 L 27.50 498.00 L 36.50 456.00 L 51.50 423.00 L 68.50 398.00 L 100.00 367.50 L 126.00 350.50 L 164.00 334.50 L 193.00 328.50 L 230.00 328.50 L 258.00 334.50 L 296.00 352.50 L 327.00 374.50 L 343.50 391.00 L 368.50 426.00 L 385.50 463.00 L 391.50 495.00 L 391.50 707.00 L 387.50 722.00 L 380.50 735.00 L 371.00 744.50 L 356.00 750.50 Z M 1146.00 464.50 L 1135.00 463.50 L 1129.00 460.50 L 1120.50 452.00 L 1117.50 444.00 L 1117.50 431.00 L 1121.50 422.00 L 1128.00 415.50 L 1137.00 411.50 L 1149.00 411.50 L 1158.00 415.50 L 1165.50 423.00 L 1169.50 435.00 L 1168.50 446.00 L 1164.50 454.00 L 1156.00 461.50 L 1146.00 464.50 Z M 1080.00 610.50 L 1039.50 610.00 L 1040.00 417.50 L 1080.50 418.00 L 1080.00 610.50 Z M 1576.00 610.50 L 1535.50 610.00 L 1534.50 529.00 L 1530.50 520.00 L 1525.00 514.50 L 1511.00 510.50 L 1497.00 514.50 L 1490.50 521.00 L 1486.50 531.00 L 1486.50 610.00 L 1445.50 610.00 L 1446.00 417.50 L 1486.50 418.00 L 1487.00 486.50 L 1504.00 474.50 L 1511.00 472.50 L 1528.00 472.50 L 1546.00 478.50 L 1563.50 494.00 L 1571.50 509.00 L 1576.50 532.00 L 1576.00 610.50 Z M 293.50 659.00 L 293.50 493.00 L 282.50 464.00 L 275.50 454.00 L 262.00 441.50 L 232.00 426.50 L 199.00 424.50 L 167.00 434.50 L 152.00 444.50 L 139.50 458.00 L 130.50 474.00 L 125.50 489.00 L 123.50 499.00 L 123.50 526.00 L 126.50 539.00 L 133.50 554.00 L 139.50 563.00 L 156.00 579.50 L 176.00 590.50 L 188.00 593.50 L 211.00 593.50 L 229.00 589.50 L 285.50 653.00 L 293.50 659.00 Z M 1848.00 613.50 L 1824.00 613.50 L 1812.00 610.50 L 1798.00 602.50 L 1784.50 584.00 L 1780.50 568.00 L 1781.00 428.50 L 1821.50 429.00 L 1822.00 475.50 L 1883.50 476.00 L 1883.00 513.50 L 1821.50 514.00 L 1821.50 564.00 L 1826.00 572.50 L 1833.00 575.50 L 1844.00 573.50 L 1849.50 567.00 L 1851.00 552.50 L 1891.50 553.00 L 1890.50 574.00 L 1882.50 593.00 L 1870.00 605.50 L 1848.00 613.50 Z M 666.00 667.50 L 625.50 667.00 L 625.00 599.50 L 615.00 607.50 L 603.00 612.50 L 578.00 613.50 L 562.00 608.50 L 550.00 601.50 L 532.50 581.00 L 524.50 554.00 L 525.50 528.00 L 530.50 512.00 L 537.50 500.00 L 556.00 482.50 L 584.00 472.50 L 614.00 473.50 L 639.00 484.50 L 650.50 495.00 L 657.50 505.00 L 666.50 532.00 L 666.00 667.50 Z M 933.00 613.50 L 905.00 611.50 L 883.00 599.50 L 868.50 582.00 L 862.50 568.00 L 859.50 553.00 L 861.50 525.00 L 872.50 500.00 L 883.00 488.50 L 893.00 481.50 L 920.00 472.50 L 949.00 473.50 L 974.00 484.50 L 991.50 503.00 L 997.50 515.00 L 1001.50 531.00 L 1002.50 610.00 L 965.00 610.50 L 964.50 593.00 L 963.00 592.50 L 952.00 605.50 L 933.00 613.50 Z M 1356.00 613.50 L 1327.00 612.50 L 1314.00 608.50 L 1300.00 600.50 L 1289.50 591.00 L 1281.50 580.00 L 1273.50 558.00 L 1273.50 528.00 L 1278.50 512.00 L 1285.50 500.00 L 1304.00 482.50 L 1319.00 475.50 L 1332.00 472.50 L 1361.00 473.50 L 1374.00 477.50 L 1388.00 485.50 L 1404.50 504.00 L 1413.50 527.00 L 1413.00 529.50 L 1373.00 529.50 L 1364.00 517.50 L 1358.00 513.50 L 1345.00 510.50 L 1336.00 511.50 L 1327.00 515.50 L 1318.50 524.00 L 1313.50 540.00 L 1314.50 552.00 L 1319.50 563.00 L 1330.00 572.50 L 1341.00 575.50 L 1353.00 574.50 L 1363.00 569.50 L 1372.00 557.50 L 1413.50 558.00 L 1406.50 579.00 L 1388.00 600.50 L 1374.00 608.50 L 1356.00 613.50 Z M 1678.00 613.50 L 1658.00 613.50 L 1642.00 608.50 L 1630.00 601.50 L 1612.50 581.00 L 1604.50 555.00 L 1605.50 528.00 L 1609.50 514.00 L 1616.50 501.00 L 1636.00 482.50 L 1664.00 472.50 L 1693.00 473.50 L 1704.00 476.50 L 1719.00 484.50 L 1730.50 495.00 L 1737.50 505.00 L 1744.50 522.00 L 1746.50 533.00 L 1746.50 610.00 L 1710.00 610.50 L 1709.50 592.00 L 1708.00 591.50 L 1698.00 604.50 L 1686.00 611.50 L 1678.00 613.50 Z M 779.00 613.50 L 753.00 613.50 L 735.00 608.50 L 722.00 600.50 L 708.50 584.00 L 700.50 556.00 L 701.00 475.50 L 741.50 476.00 L 741.50 554.00 L 747.50 568.00 L 755.00 573.50 L 763.00 575.50 L 779.00 572.50 L 786.50 565.00 L 789.50 558.00 L 790.50 476.00 L 831.50 476.00 L 831.50 556.00 L 826.50 577.00 L 819.50 590.00 L 807.00 602.50 L 794.00 609.50 L 779.00 613.50 Z M 1163.00 610.50 L 1122.50 610.00 L 1123.00 475.50 L 1163.50 476.00 L 1163.00 610.50 Z M 599.50 575.00 L 613.00 570.50 L 620.50 563.00 L 625.50 551.00 L 625.50 535.00 L 620.50 523.00 L 613.00 515.50 L 604.00 511.50 L 588.00 511.50 L 576.00 517.50 L 570.50 524.00 L 565.50 539.00 L 566.50 552.00 L 570.50 562.00 L 576.00 568.50 L 587.00 574.50 L 599.50 575.00 Z M 934.50 575.00 L 945.00 572.50 L 956.50 562.00 L 961.50 546.00 L 960.50 534.00 L 953.50 520.00 L 948.00 515.50 L 939.00 511.50 L 923.00 511.50 L 914.00 515.50 L 904.50 526.00 L 901.50 534.00 L 901.50 551.00 L 906.50 563.00 L 914.00 570.50 L 923.00 574.50 L 934.50 575.00 Z M 1679.50 575.00 L 1691.00 571.50 L 1700.50 563.00 L 1705.50 551.00 L 1705.50 536.00 L 1700.50 523.00 L 1691.00 514.50 L 1684.00 511.50 L 1667.00 511.50 L 1656.00 517.50 L 1647.50 530.00 L 1645.50 538.00 L 1646.50 553.00 L 1650.50 562.00 L 1660.00 571.50 L 1672.00 575.50 L 1679.50 575.00 Z M 1231.00 613.50 L 1217.00 613.50 L 1212.00 611.50 L 1202.50 603.00 L 1198.50 594.00 L 1198.50 581.00 L 1202.50 572.00 L 1209.00 565.50 L 1217.00 561.50 L 1231.00 561.50 L 1240.00 565.50 L 1249.50 579.00 L 1250.50 592.00 L 1247.50 601.00 L 1241.00 608.50 L 1231.00 613.50 Z"/>
  </g>
</svg>
