<svg xmlns="http://www.w3.org/2000/svg" viewBox="0 0 376 344" role="img">
  <g fill="#000000" fill-rule="evenodd">
    <path d="M 275.00 296.50 L 260.00 295.50 L 246.50 287.00 L 239.50 274.00 L 237.00 250.50 L 213.00 259.50 L 198.00 262.50 L 175.00 262.50 L 160.00 259.50 L 138.00 251.50 L 118.00 239.50 L 101.50 224.00 L 91.50 210.00 L 82.50 191.00 L 76.50 165.00 L 76.50 144.00 L 81.50 121.00 L 91.50 99.00 L 100.50 86.00 L 117.00 69.50 L 136.00 56.50 L 151.00 49.50 L 175.00 43.50 L 202.00 43.50 L 216.00 46.50 L 238.00 56.50 L 261.00 72.50 L 284.50 102.00 L 293.50 121.00 L 297.50 137.00 L 298.50 266.00 L 296.50 277.00 L 290.50 288.00 L 286.00 292.50 L 275.00 296.50 Z M 237.50 235.00 L 238.50 144.00 L 230.50 123.00 L 215.00 108.50 L 198.00 101.50 L 178.00 101.50 L 159.00 108.50 L 144.50 122.00 L 135.50 143.00 L 135.50 164.00 L 141.50 179.00 L 155.00 193.50 L 172.00 202.50 L 191.00 204.50 L 209.00 198.50 L 233.50 233.00 L 237.50 235.00 Z"/>
  </g>
</svg>
